<?xml version="1.0" encoding="UTF-8"?>
<svg id="Layer_2" data-name="Layer 2" xmlns="http://www.w3.org/2000/svg" viewBox="0 0 767 726">
  <defs>
    <style>
      .cls-1 {
        fill: #8b1a1a;
      }

      .cls-2 {
        fill: #a01020;
      }

      .cls-3 {
        fill: #fbbf24;
      }

      .cls-4 {
        fill: #fef08a;
      }

      .cls-5 {
        fill: #6b0f18;
      }

      .cls-6 {
        fill: #5a0a14;
      }

      .cls-7 {
        fill: #5a0a14;
      }

      .cls-8 {
        fill: #fbbf24;
      }

      .cls-9 {
        fill: #fbbf24;
      }

      .cls-10 {
        fill: #4a0812;
      }

      .cls-11 {
        fill: #5a0a14;
      }

      .cls-12 {
        fill: #7a1218;
      }

      .cls-13 {
        fill: #fb923c;
      }

      .cls-14 {
        fill: #5a0a14;
      }

      .cls-15 {
        fill: #3a0610;
      }

      .cls-16 {
        fill: #a01020;
      }

      .cls-17 {
        fill: #f97316;
      }

      .cls-18 {
        fill: #fcd34d;
      }

      .cls-19 {
        fill: #8b1a1a;
      }

      .cls-20 {
        fill: #a01020;
      }

      .cls-21 {
        fill: #f97316;
      }

      .cls-22 {
        fill: #fbbf24;
      }

      .cls-23 {
        fill: #6b0f18;
      }

      .cls-24 {
        fill: #3a0812;
      }

      .cls-25 {
        fill: #5a0a14;
      }

      .cls-26 {
        fill: #fbbf24;
      }

      .cls-27 {
        fill: #2a0610;
      }

      .cls-28 {
        fill: #3a0d12;
      }

      .cls-29 {
        fill: #5a0a14;
      }

      .cls-30 {
        fill: #a01020;
      }

      .cls-31 {
        fill: #7a1218;
      }

      .cls-32 {
        fill: #4a1520;
      }

      .cls-33 {
        fill: #a01020;
      }

      .cls-34 {
        fill: #5a0a14;
      }

      .cls-35 {
        fill: #fb923c;
      }

      .cls-36 {
        fill: #3a0d10;
      }

      .cls-37 {
        fill: #6b1520;
      }

      .cls-38 {
        fill: #fef08a;
      }

      .cls-39 {
        fill: #5a1018;
      }

      .cls-40 {
        fill: #a01020;
      }

      .cls-41 {
        fill: #f97316;
      }

      .cls-42 {
        fill: #4a0e15;
      }

      .cls-43 {
        fill: #fef9c3;
      }

      .cls-44 {
        fill: #9a0e1e;
      }

      .cls-45 {
        fill: #8b1a1a;
      }

      .cls-46 {
        fill: #4a0e15;
      }

      .cls-47 {
        fill: #2a0810;
      }

      .cls-48 {
        fill: #6b0f18;
      }

      .cls-49 {
        fill: #6b0f18;
      }

      .cls-50 {
        fill: #fb923c;
      }

      .cls-51 {
        fill: #7a1218;
      }
    </style>
  </defs>
  <g id="Layer_1-2" data-name="Layer 1">
    <g>
      <path class="cls-37" d="M390,0h1l1,17,3,10,7,11,23,23,9,13,5,11,2,9v24h2l2-9,6-8,6-5,4-2h3l2,20,7,16,8,18,3,15v21l-3,14-5,12-7,11-7,7-15,10-4,2,17,4,11,3,2-5,16-12,10-9,7-7,7-10,8-16,5-13,2-9,1-9v-30l-5-26-7-19-8-17-6-10,1-5h9l16,8,12,9,13,12,9,10,14,20,14,27,4,11,5,19,3,19v27l-5,27-10,25-11,19-2,5,34,18,21,11,33,15,16,6,12,5,22,7,24,5,6,1,17,1,6,4,1,1v10l-5,13-6,12-8,11-12,14-10,9-15,10-16,8-13,4-12,2h-19l-12-2-5-2,2,14v26l-3,21-5,12-8,7-10,5,1,2,3,1,11,1,1,1v7l-5,16-8,15-9,12-16,16-18,13-27,14-18,7-10,4-23,6-14,3-16,2-17,1-8,12-10,14-9,10-8,8h-2l-1-7v-9h-2l-3,10-8,16-8,10-6,5-5-1-10-11-9-16-3-9v-2h-2l-2,15-4-2-12-12-8-10-10-15-5-8-33-4-29-6-33-11-24-12-12-8-10-8-10-9-8-10-8-14-6-15-2-6-1-12,1-1,12-1,3-2-12-6-7-8-4-9-3-16v-36l1-7-6,1h-28l-18-5-16-8-11-7-10-8-12-12-11-15-8-16-4-11-1-5v-8l5-5,23-2,31-7,30-11,25-11,25-12,26-13,20-11-5-9-8-14-6-13-5-15-4-21-1-8v-20l3-22,5-19,3-8,11-24,12-19,11-13,17-17,18-12,12-5h6l2,2-1,5-9,17-9,21-5,19-2,13v25l3,21,7,19,8,15,11,13,8,8,15,11,7,6v2l15-4,9-2-12-6-11-9-8-10-4-8-3-11v-20l4-16,3-13,1-10,5,2,8,9,2,4v5l3-1,2-4v-7l-8-17-2-7v-18l5-12,7-10,12-15,5-12,1-13,5,2,7,7,3,8v11l-1,3v8l1,1h6l5-3,4-9,1-6,1-19,3-12,6-11,9-10,13-9,4-2Z"/>
      <path class="cls-18" d="M381,46l2,4,5,9,12,11,8,7,8,9,4,9,1,5v11l-7,16-2,6v8l7,8,5,5,4,5,1,6,8-1,9-6,1-2h2v-17l2-3h3l6,13,5,20v19l-3,15-8,16-11,12-9,7-10,5-6,2-10,2-7,3-8,1h-27l-20-2-9-2-19-10-11-10-5-8-2-4-1-6v-17l4-10,7-11,8-10,3-6v-9l-3-9-2-5v-15l6-10,11-8h3l-3,11v8l7,8,5,4,3-10,4-6,8-7,15-10,6-9v-7l-4-14v-14l3-6,1-1Z"/>
      <path class="cls-49" d="M357,568h43l21,3,16,5,11,6,9,9,4,9,1,4v16l-5,16-11,19,4,1-6,2-7,11-10,14-9,10-8,8h-2l-1-7v-9h-2l-3,10-8,16-8,10-6,5-5-1-10-11-9-16-3-9v-2h-2l-2,15-4-2-12-12-8-10-10-15-5-8v-2l-2-1-7-12-4-8-3-9v-20l4-10,7-8,8-6,12-5,14-4,18-2Z"/>
      <path class="cls-33" d="M248,49h6l2,2-1,5-9,17-9,21-5,19-2,13v25l3,21,7,19,8,15,11,13,8,8,5,5-7,7-7,8-14,11-15,9-15,7-21,7-7,1-3,2-9-15-8-17-5-15-4-21-1-8v-20l3-22,5-19,3-8,11-24,12-19,11-13,17-17,18-12,12-5Z"/>
      <path class="cls-16" d="M504,50h9l16,8,12,9,13,12,9,10,14,20,14,27,4,11,5,19,3,19v27l-5,27-10,25-11,19-24-6-18-8-16-9-14-11-12-12-5-6,12-11,9-10,8-13,7-16,4-15,1-9v-30l-5-26-7-19-8-17-6-10,1-5Z"/>
      <path class="cls-17" d="M390,0h1l1,17,3,10,7,11,23,23,9,13,5,11,2,9v24h2l2-9,6-8,6-5,4-2h3l2,20,7,16,8,18,3,15v21l-3,14-5,12-7,11-7,7-15,10-10,4-16,5-14,3h-6l1-2,9-3,9-2,10-4,11-7,9-9,6-9,5-11,3-15v-19l-5-20-5-11v-2l-3,1-1,2-1,17h-2l-2,4-8,5h-8l-4-9-4-5-8-7-2-3v-8l4-10,5-12v-11l-3-10-6-9-9-9-11-9-6-7-4-9-3,6v14l4,14v7l-7,10-16,11-8,7-4,9-1,6-8-6-6-7v-8l4-11-8,4-6,5-5,9v15l3,7,2,7v9l-5,9-11,14-3,5-3,9v17l2,7,4,8,8,9,13,8,9,4-3,1-18-5-14-7-11-9-8-10-4-8-3-11v-20l4-16,3-13,1-10,5,2,8,9,2,4v5l3-1,2-4v-7l-8-17-2-7v-18l5-12,7-10,12-15,5-12,1-13,5,2,7,7,3,8v11l-1,3v8l1,1h6l5-3,4-9,1-6,1-19,3-12,6-11,9-10,13-9,4-2Z"/>
      <path class="cls-21" d="M356.5,293.15h3.5l17,6.1,5.5,2.29,2.5-.38,6-2.29,3.5-1.14,13-4.58h4l1.5.76v5.34l-1,4.96-1.5,4.96-1,2.67v2.67l8,4.96,5,3.43,4,2.67,2,1.53v3.05l-3,1.53-9,.76-10.5,1.53-6,.76-1.5,1.53-2,3.43-4,7.63-1.5,1.91-1.5,2.67-2,3.43-1.5,1.53h-3.5l-2.5-2.29-1.5-2.67-4.5-8.39-2-3.05-1.5-3.05-1.5-2.67-8-.76-1-.38-7.5-.76-5-.76-6.5-.76-1.5-1.53v-2.67l6.5-4.96,5.5-3.43,5-3.43,2-1.14-1-4.2-1.5-6.1-1-6.1v-3.43l1.5-1.14v-.04Z"/>
      <path class="cls-4" d="M387,127h1l1,12,3,12,7,11,7,8,6,12,1,16,5,6,6,1,5-5,1-11,5-5,6-1,1,16v14l-5,12-9,10-12,9-14,5-1,1-8,1h-27l-9-2-16-7-9-7-8-9-6-12-1-4v-16l4-13,8-15,1-5h2v2l4,2,4,7v8l-2,7v9l7,9,6,9,3,2-2-8v-8l3-7,7-6,2-3v-7l-5-10v-8l3-5,7-7,12-9,6-11Z"/>
      <path class="cls-2" d="M248,49h6l2,2-1,5-9,17-9,21-5,19-2,13v25l3,21v6l-7,2-8,2h-35l-19-5-5-3v-8l5-19,3-8,11-24,12-19,11-13,17-17,18-12,12-5Z"/>
      <path class="cls-44" d="M504,50h9l16,8,12,9,13,12,9,10,14,20,14,27,4,11,5,19v8l-2,2-13,4-15,3h-22l-16-3-5-3v-8l2-12v-30l-5-26-7-19-8-17-6-10,1-5Z"/>
      <path class="cls-11" d="M487,232l4,1,11,12,9,8,13,9,19,10,13,5,20,5-1,6,15,8-1,6-8,15-6,7-5,1-4-5-8-14-5-2-19-5-21-8-16-8-12-7-10-9-5-10v-9l3-6,14-10Z"/>
      <path class="cls-14" d="M271,232l4,1,11,8,4,5v11l-5,10-7,7-14,9-21,10-23,8-19,4-7,11-4,7-2,2-4-1-4-5-4-8-4-11v-5l13-7-1-5,2-2,11-2,24-9,15-8,12-8,13-11,10-11Z"/>
      <path class="cls-24" d="M622,403l6,2,16,6,8,3,26,4h23l19-3,18-6,12-6-1,4-9,10-7,8-14,11-15,9-17,7-17,3h-19l-12-2-6-3-3-19-6-21-2-4v-3Z"/>
      <path class="cls-15" d="M16,402l17,8,17,5,12,2,18,1,21-2,17-4,17-6,5-1-3,10-7,21-2,9-2,8-7,2h-28l-18-5-16-8-11-7-10-8-12-12-8-11v-2Z"/>
      <path class="cls-8" d="M231,480l4,1,58,29,1,4-4,10-9,10-8,5-10,3h-11l-11-4-8-6-6-7-4-9-1-4v-13l4-11,5-8Z"/>
      <path class="cls-9" d="M523,480l3,1,5,8,3,8v17l-5,12-5,6-9,6-7,3h-20l-10-5-9-8-6-12v-6l40-20,15-8,5-2Z"/>
      <path class="cls-51" d="M383,307.65l2.5.38,12,5.72,3,1.91-.5,3.05-5,10.68h-22l-5-10.3-1-3.43,12-6.1,4-1.91Z"/>
      <path class="cls-30" d="M158,172l6,4,19,5h35l14-3,2-4,5,15,6,13-21,8-16,4-5,1h-29l-16-3-1,4-1-8v-20l2-16Z"/>
      <path class="cls-27" d="M409,588l5,1,1,1v12l-4,8-7,5-6,2h-11l-1,6v10l3,9,5,5,2,1h13l10-4h6l1,5-7,6-13,5h-15l-10-5-4-2-5,4-6,3h-18l-9-4-8-5-2-3,1-4h6l9,4h15l6-4,4-9v-13l-1-4-11-1-9-3-7-8-2-5v-11l1-1h6l6,10,7,3h35l6-3,4-5,4-6Z"/>
      <path class="cls-40" d="M600,171h1l2,14v27l-12,2-4,1h-30l-22-5-15-6-5-2,9-21,2-6,3,3,12,3,7,1h22l22-5,7-3,1-3Z"/>
      <path class="cls-34" d="M242,202l4,1,2,3-1,5-8,10-7,7-13,9-14,7-12,4-15,3h-12l-5-14-3-15v-10l16,2h29l18-4,19-7,2-1Z"/>
      <path class="cls-25" d="M514,202l6,1,15,6,22,5h30l15-3-1,13-4,18-4,9h-10l-20-4-15-6-12-7-10-8-8-8-6-8,1-6,1-2Z"/>
      <path class="cls-3" d="M387,137l2,2,3,12,7,11,7,8,6,12,1,16,5,6,6,1,5-5,1-11,5-5,6-1,1,16v14l-5,12-9,10-12,9-14,5-1,1-8,1h-27v-1h24v-2l9-5,6-9,1-3v-9l-6-9-7-8,1-9,5-11-1-9-6-7-8-7-2-5v-8l5-12Z"/>
      <path class="cls-7" d="M167,139l6,2,15,8,12,4,19,3,11,1,3,15v6l-7,2-8,2h-35l-19-5-5-3v-8l5-19,3-8Z"/>
      <path class="cls-5" d="M590,139h2l5,15,3,12v8l-2,2-13,4-15,3h-22l-16-3-5-3v-8l2-12,15-1,16-3,16-6,13-7,1-1Z"/>
      <path class="cls-20" d="M184,105l8,6,11,7,10,4,16,4,1,31h-11l-19-3-14-5-17-9-1-4,10-21,6-10Z"/>
      <path class="cls-20" d="M574,106l4,5,13,25-1,4-10,6-14,6-12,3-10,2h-14l-1-31,14-3,13-5,13-7,5-5Z"/>
      <path class="cls-22" d="M330,161h2v2l4,2,4,7v8l-2,7v9l7,9,3,5v2l-4,2v11l4,13,3,5v2l3,1-2,1-14-7-10-9-7-10-4-11v-16l4-13,8-15,1-5Z"/>
      <path class="cls-29" d="M202,82l4,1,10,9,14,8,4,2-4,24h-7l-18-6-12-7-8-6,1-5,12-16,4-4Z"/>
      <path class="cls-6" d="M554,83h4l10,13,6,9-2,4-8,6-15,7-13,4h-7l-4-20v-4l16-8,11-9,2-2Z"/>
      <path class="cls-38" d="M247,489l6,1,24,12v7l-5,9-8,5-2,1h-9l-6-3-7-8-1-4v-9l4-7,4-4Z"/>
      <path class="cls-43" d="M503,490h6l5,4,3,6v11l-4,6-6,5-6,2h-8l-7-4-4-5-3-6v-7l24-12Z"/>
      <path class="cls-46" d="M573,288l6,2,11,6-1,6-8,15-6,7-5,1-4-5-8-14,2-4,5-4,8-10Z"/>
      <path class="cls-45" d="M376,334.35h16.5l-1.5,3.43-6.5,11.44-1.5-1.53-6.5-11.44-.5-1.91h0Z"/>
      <path class="cls-10" d="M183,289l5,1,8,10,4,4-2,6-8,13-2,2-4-1-4-5-4-8-4-11v-5l11-6Z"/>
      <path class="cls-42" d="M368,543h16l16,3,12,5,8,6,2,2v3l-5-1-13-6-15-4h-25l-19,5-12,6h-3l2-5,9-6,12-5,15-3Z"/>
      <path class="cls-31" d="M405,299.26h1l-.5,4.2-2,7.63-2-.38-9.5-4.58-1.5-.76.5-1.14,14-4.96h0Z"/>
      <path class="cls-1" d="M361,319.09h1l3,6.1,1.5,3.05v1.14l-8.5-.76-8-1.14-1-.76,5.5-3.81,6.5-3.81h0Z"/>
      <path class="cls-19" d="M406,319.09l2.5.76,5,3.43,5.5,3.43-1.5.76-12.5,1.53-3.5.38,1.5-4.2,3-6.1h0Z"/>
      <path class="cls-12" d="M362,299.26l9,3.05,6.5,2.67-2.5,1.53-9,4.2-1.5.38-2.5-9.15v-2.67h0Z"/>
      <path class="cls-23" d="M504,50h9l16,8-1,4-8,8-6,4-11-19,1-5Z"/>
      <path class="cls-48" d="M248,49h6l2,2-1,5-8,15-3,1-8-7-6-7,10-6,8-3Z"/>
      <path class="cls-13" d="M420,243l2,1,1,2-16,4h-6l1-2,9-3,9-2Z"/>
      <path class="cls-36" d="M225,476l4,1,8,3,14,7-4,1-13-7h-4v-2l-4-1-1-2Z"/>
      <path class="cls-35" d="M347,245l10,3,2,2-13-1-5-1v-1h6v-2Z"/>
      <path class="cls-28" d="M533,474l3,1-11,6-7,1,4-3,9-4,2-1Z"/>
      <path class="cls-32" d="M3,356h2l-2,4-1,11-2-3v-8l3-4Z"/>
      <path class="cls-39" d="M202,82h3v2l-8,7-2-1,7-8Z"/>
      <path class="cls-50" d="M325,241l9,3,2,2-11-2v-3Z"/>
      <path class="cls-47" d="M225,476l4,1,8,3-3,1h-4v-2l-4-1-1-2Z"/>
      <path class="cls-41" d="M426,241l3,1-4,4-4-2,5-3Z"/>
      <path class="cls-26" d="M350,247l7,1,2,2-9-1v-2Z"/>
    </g>
  </g>
</svg>