<?xml version="1.0" encoding="UTF-8"?>
<svg id="Layer_2" xmlns="http://www.w3.org/2000/svg" version="1.1" viewBox="0 0 723.73 672">
  <!-- Generator: Adobe Illustrator 30.2.1, SVG Export Plug-In . SVG Version: 2.1.1 Build 1)  -->
  <defs>
    <style>
      .st0 {
        fill: #1a1035;
      }

      .st1 {
        fill: #3b2880;
      }

      .st2 {
        fill: #78e5ff;
      }

      .st3 {
        fill: #3a0d12;
      }

      .st4 {
        fill: #2a0810;
      }

      .st5 {
        fill: #3a0d10;
      }

      .st6 {
        fill: #2d1a60;
      }

      .st7 {
        fill: #83aae1;
      }

      .st8 {
        fill: #2a84ff;
      }

      .st9 {
        fill: #a5f3fc;
      }
    </style>
  </defs>
  <path class="st6" d="M263.73,0h8v7l-8,15-10,24-5,16-4,22v23l4,25,8,20,7,11,8,10,10,9,11,8,3,3v2l22-4,16-1,9,3h27l15-2h15l15,3,10,2,6-7,12-9,12-12,9-14,8-18,4-20,1-9v-19l-3-20-7-24-8-19-10-21V0h9l17,9,14,11,16,16,12,16,8,13,11,21,6,15,5,19,3,16v31l-5,23-3,11-9,21-8,14-1,4,16,8,28,13,16,8,31,13,19,7,24,8,22,5,23,3,17,1,4,5v7l-5,17-7,14-11,15-11,12-10,9-14,9-15,7-9,3-12,2h-23l-8-2,3,17,1,6v32l-3,13-7,10-7,6-2,1h9l2,2-1,13-4,13-8,16-9,12-9,10-14,11-10,7-21,11-21,8-17,5-14,3-19,2-21,1-10,17-8,12-9,10-7,7h-2l-2-14-4,9-7,14-7,9-5,5-7-1-7-8-8-13-5-13-1-1-2,13h-3l-5-5-9-10-12-18-7-12v-2h-24l-24-4-21-6-16-6-16-8-11-6-16-12-12-11-10-12-8-14-6-16-1-5v-12l1-1h9l-8-6-6-8-3-6-2-15v-23l3-17,2-10-12,2h-19l-16-4-16-7-11-7-13-11-11-12-12-18-5-11v-33l23-1,27-5,36-12,24-10,28-13,30-15,13-7h3l-5-7-8-16-8-19-5-22-2-14v-22l5-30,5-15,7-17,12-21,10-14,11-13,8-8,11-9,14-9,9-4h0Z"/>
  <path class="st6" d="M263.73,0h8v7l-8,15-10,24-5,16-4,22v23l4,25,8,20,7,11,8,10,10,9,11,8,4,5v14l-8,11-11,8-17,9-18,7-21,6-5,1h-7l-9-10-6-8-8-16-8-19-5-22-2-14v-22l5-30,5-15,7-17,12-21,10-14,11-13,8-8,11-9,14-9,9-4Z"/>
  <path class="st6" d="M448.73,0h9l17,9,14,11,16,16,12,16,8,13,11,21,6,15,5,19,3,16v31l-5,23-3,11-9,21-8,14-9,12-3,2h-11l-19-5-19-7-16-8-12-8-8-9-3-5v-10l2-5,8-7,9-7,11-11,9-14,8-18,4-20,1-9v-19l-3-20-7-24-8-19-10-21V0h0Z"/>
  <path class="st1" d="M339.73,519h42l18,2,16,4,11,6,9,8,4,7,2,7v19l-4,11-8,16-7,10-9,16-9,12-12,12h-2l-2-14-4,9-7,14-7,9-5,5-7-1-7-8-8-13-5-13-1-1-2,13h-3l-5-5-9-10-12-18-9-15-8-13-4-10-2-8v-18l6-12,8-8,11-6,12-4,19-3Z"/>
  <path class="st1" d="M707.73,351l1,2-8,11-11,12-10,9-14,9-15,7-9,3-12,2h-23l-8-3-3-7-7-22-8-19,5,1v2l9,2,7,3,18,4,6,1h37l12-2,6-2,9-3,16-8,2-2Z"/>
  <path class="st1" d="M22.73,349l4,2,9,6,12,5,15,4,10,1h34l14-3,18-5,7-2-10,30-4,15-7,3-6,1h-19l-16-4-16-7-11-7-13-11-11-12-10-15s0-1,0-1Z"/>
  <path class="st1" d="M281.73,184l4,1,8,6,3,4v14l-8,11-11,8-17,9-18,7-21,6-5,1h-7l-9-10-5-7v-3l20-4,22-9,13-7,14-10,12-11,5-6Z"/>
  <path class="st1" d="M437.73,184h3l9,11,14,11,14,9,19,9,17,5,12,3-2,5-8,11-3,2h-11l-19-5-19-7-16-8-12-8-8-9-3-5v-10l2-5,8-7,3-2h0Z"/>
  <path class="st6" d="M174.73,125l6,1,9,3,18,3h18l21-3,1-3,2,8,6,16,1,3-11,5-16,5-18,2h-20l-19-3h-1v-22l2-14,1-1h0Z"/>
  <path class="st0" d="M328.73,539l4,1,7,10,3,2h36l6-3,7-10,5,1,1,2v7l-4,10-7,6-5,2-11,1-1,1v14l3,9,5,5h14l9-4h5l1,4-4,5-9,5-6,2h-14l-9-6h-4l-10,6h-16l-10-5-7-6v-4h7l9,4h9l6-3,4-5,2-6v-12l-1-4-12-1-9-5-4-5-2-5v-11l2-2Z"/>
  <path class="st1" d="M254.73,153l4,2,2,4-1,4-7,8-9,9-14,9-14,6-10,3-14,3h-11l-2-3-5-22-1-15,19,3h20l18-2,21-7,4-2h0Z"/>
  <path class="st1" d="M464.73,153l5,2,11,4,17,4,8,1h27l12-3h4v10l-3,15-4,15h-12l-21-5-12-5-10-5-13-10-9-9-4-5,1-4,3-5h0Z"/>
  <path class="st1" d="M184.73,89l14,8,9,4,16,4,21,2,2,15v7l-12,3-9,1h-18l-18-3-15-5,1-11,6-19,3-6Z"/>
  <path class="st1" d="M534.73,90l3,1,5,14,4,15v5l-14,5-19,3h-21l-16-3-2-1,1-13,1-9,16-1,18-4,16-7,8-5Z"/>
  <path class="st6" d="M518.73,56l4,5,13,25,1,4-12,7-14,6-18,4h-15l-1-19-1-11,14-4,15-6,12-8,2-3Z"/>
  <path class="st6" d="M200.73,57l4,2,14,9,11,5,16,4-1,7-1,23h-12l-16-3-10-3-16-8-5-4,3-9,12-22,1-1Z"/>
  <path class="st1" d="M218.73,33l4,1,5,5,8,7,14,7-1,9-3,15h-6l-15-5-13-7-9-7-1-2,9-13,8-10Z"/>
  <path class="st1" d="M499.73,33l4,2,13,17,2,3-1,4-10,7-12,6-13,4-7,1-4-17-1-7,14-7,11-9,4-4h0Z"/>
  <path class="st1" d="M354.73,492h23l13,5,11,7,3,4-1,4-4-1-9-6-10-4-9-2h-14l-14,3-14,5-8,5h-4l1-4,7-6,12-6,9-3,8-1Z"/>
  <path class="st6" d="M199.73,239l4,4,6,7,2,1-2,4-11,12-5-1-4-10-3-10,10-6,3-1Z"/>
  <path class="st6" d="M521.73,238l8,5,8,4-1,5-8,10-4,3-4-2-9-10v-2h-7v-1l10-2,6-8,1-2Z"/>
  <path class="st1" d="M448.73,0h9l15,8,1,4-8,8-5,4-3-1-9-19V0Z"/>
  <path class="st1" d="M263.73,0h8v7l-9,17-5-2-11-11,1-3,11-6,5-2Z"/>
  <path class="st7" d="M363.91,55.23l1.57,2.78,3.92,6.26,9.42,7.65,6.28,4.87,6.28,6.26,3.14,6.26.78,3.48v7.65l-5.49,11.12-1.57,4.17v5.56l5.49,5.56,3.92,3.48,3.14,3.48.78,4.17,6.28-.7,7.06-4.17.78-1.39h1.57v-11.82l1.57-2.09h2.35l4.71,9.04,3.92,13.9v13.21l-2.35,10.43-6.28,11.12-8.63,8.34-7.06,4.87-7.85,3.48-4.71,1.39-7.85,1.39-5.49,2.09-6.28.7h-21.19l-15.69-1.39-7.06-1.39-14.91-6.95-8.63-6.95-3.92-5.56-1.57-2.78-.78-4.17v-11.82l3.14-6.95,5.49-7.65,6.28-6.95,2.35-4.17v-6.26l-2.35-6.26-1.57-3.48v-10.43l4.71-6.95,8.63-5.56h2.35l-2.35,7.65v5.56l5.49,5.56,3.92,2.78,2.35-6.95,3.14-4.17,6.28-4.87,11.77-6.95,4.71-6.26v-4.87l-3.14-9.73v-9.73l2.35-4.17.78-.7.02-.02h0Z"/>
  <path class="st8" d="M370.97,23.25h.78l.78,11.82,2.35,6.95,5.49,7.65,18.05,15.99,7.06,9.04,3.92,7.65,1.57,6.26v16.69h1.57l1.57-6.26,4.71-5.56,4.71-3.48,3.14-1.39h2.35l1.57,13.9,5.49,11.12,6.28,12.51,2.35,10.43v14.6l-2.35,9.73-3.92,8.34-5.49,7.65-5.49,4.87-11.77,6.95-7.85,2.78-12.56,3.48-10.99,2.09h-4.71l.78-1.39,7.06-2.09,7.06-1.39,7.85-2.78,8.63-4.87,7.06-6.26,4.71-6.26,3.92-7.65,2.35-10.43v-13.21l-3.92-13.9-3.92-7.65v-1.39l-2.35.7-.78,1.39-.78,11.82h-1.57l-1.57,2.78-6.28,3.48h-6.28l-3.14-6.26-3.14-3.48-6.28-4.87-1.57-2.09v-5.56l3.14-6.95,3.92-8.34v-7.65l-2.35-6.95-4.71-6.26-7.06-6.26-8.63-6.26-4.71-4.87-3.14-6.26-2.35,4.17v9.73l3.14,9.73v4.87l-5.49,6.95-12.56,7.65-6.28,4.87-3.14,6.26-.78,4.17-6.28-4.17-4.71-4.87v-5.56l3.14-7.65-6.28,2.78-4.71,3.48-3.92,6.26v10.43l2.35,4.87,1.57,4.87v6.26l-3.92,6.26-8.63,9.73-2.35,3.48-2.35,6.26v11.82l1.57,4.87,3.14,5.56,6.28,6.26,10.2,5.56,7.06,2.78-2.35.7-14.12-3.48-10.99-4.87-8.63-6.26-6.28-6.95-3.14-5.56-2.35-7.65v-13.9l3.14-11.12,2.35-9.04.78-6.95,3.92,1.39,6.28,6.26,1.57,2.78v3.48l2.35-.7,1.57-2.78v-4.87l-6.28-11.82-1.57-4.87v-12.51l3.92-8.34,5.49-6.95,9.42-10.43,3.92-8.34.78-9.04,3.92,1.39,5.49,4.87,2.35,5.56v7.65l-.78,2.09v5.56l.78.7h4.71l3.92-2.09,3.14-6.26.78-4.17.78-13.21,2.35-8.34,4.71-7.65,7.06-6.95,10.2-6.26,3.14-1.39h.06,0Z"/>
  <path class="st9" d="M368.62,111.54h.78l.78,8.34,2.35,8.34,5.49,7.65,5.49,5.56,4.71,8.34.78,11.12,3.92,4.17,4.71.7,3.92-3.48.78-7.65,3.92-3.48,4.71-.7.78,11.12v9.73l-3.92,8.34-7.06,6.95-9.42,6.26-10.99,3.48-.78.7-6.28.7h-21.19l-7.06-1.39-12.56-4.87-7.06-4.87-6.28-6.26-4.71-8.34-.78-2.78v-11.12l3.14-9.04,6.28-10.43.78-3.48h1.57v1.39l3.14,1.39,3.14,4.87v5.56l-1.57,4.87v6.26l5.49,6.26,4.71,6.26,2.35,1.39-1.57-5.56v-5.56l2.35-4.87,5.49-4.17,1.57-2.09v-4.87l-3.92-6.95v-5.56l2.35-3.48,5.49-4.87,9.42-6.26,4.71-7.65.05.03Z"/>
  <path class="st2" d="M368.62,118.5l1.57,1.39,2.35,8.34,5.49,7.65,5.49,5.56,4.71,8.34.78,11.12,3.92,4.17,4.71.7,3.92-3.48.78-7.65,3.92-3.48,4.71-.7.78,11.12v9.73l-3.92,8.34-7.06,6.95-9.42,6.26-10.99,3.48-.78.7-6.28.7h-21.19v-.7h18.83v-1.39l7.06-3.48,4.71-6.26.78-2.09v-6.26l-4.71-6.26-5.49-5.56.78-6.26,3.92-7.65-.78-6.26-4.71-4.87-6.28-4.87-1.57-3.48v-5.56l3.92-8.34.05.05h0Z"/>
  <polygon class="st1" points="28.27 352.03 28.27 358.32 22.62 349.78 28.27 352.03"/>
  <path class="st6" d="M28.27,302.45v49.57l-5.65-2.25c-8.81-13.3-17.57-28.68-22.62-43.81v-5.65l28.27,2.14h0Z"/>
  <path class="st8" d="M245.88,416.21l3.12.87,45.2,25.16.78,3.47-3.12,8.68-7.01,8.68-6.24,4.34-7.79,2.6h-8.57l-8.57-3.47-6.24-5.21-4.68-6.07-3.12-7.81-.78-3.47v-11.28l3.12-9.54,3.9-6.94Z"/>
  <path class="st8" d="M473.46,416.21l2.34.87,3.9,6.94,2.34,6.94v14.75l-3.9,10.41-3.9,5.21-7.01,5.21-5.46,2.6h-15.59l-7.79-4.34-7.01-6.94-4.68-10.41v-5.21l31.18-17.35,11.69-6.94,3.9-1.74Z"/>
  <path class="st7" d="M258.35,424.01l4.68.87,18.71,10.41v6.07l-3.9,7.81-6.24,4.34-1.56.87h-7.01l-4.68-2.6-5.46-6.94-.78-3.47v-7.81l3.12-6.07,3.12-3.47Z"/>
  <path class="st7" d="M457.87,424.88h4.68l3.9,3.47,2.34,5.21v9.54l-3.12,5.21-4.68,4.34-4.68,1.74h-6.24l-5.46-3.47-3.12-4.34-2.34-5.21v-6.07l18.71-10.41Z"/>
  <path class="st5" d="M241.2,412.74l3.12.87,6.24,2.6,10.91,6.07-3.12.87-10.13-6.07h-3.12v-1.74l-3.12-.87-.78-1.74Z"/>
  <path class="st3" d="M481.26,411l2.34.87-8.57,5.21-5.46.87,3.12-2.6,7.01-3.47,1.56-.87Z"/>
  <path class="st4" d="M241.2,412.74l3.12.87,6.24,2.6-2.34.87h-3.12v-1.74l-3.12-.87-.78-1.74Z"/>
</svg>