<?xml version="1.0" encoding="UTF-8"?>
<svg id="Layer_2" xmlns="http://www.w3.org/2000/svg" version="1.1" viewBox="0 0 723.73 672">
  <!-- Generator: Adobe Illustrator 30.2.1, SVG Export Plug-In . SVG Version: 2.1.1 Build 1)  -->
  <defs>
    <style>
      .st0 {
        fill: #4a0e15;
      }

      .st1 {
        fill: #fef9c3;
      }

      .st2 {
        fill: #7a1218;
      }

      .st3 {
        fill: #f97316;
      }

      .st4 {
        fill: #6b1520;
      }

      .st5 {
        fill: #903;
      }

      .st6 {
        fill: #6b0f18;
      }

      .st7 {
        fill: #3b2880;
      }

      .st8 {
        fill: #8b1a1a;
      }

      .st9 {
        fill: #3a0d12;
      }

      .st10 {
        fill: #2a0810;
      }

      .st11 {
        fill: #3a0d10;
      }

      .st12 {
        fill: #2a0610;
      }

      .st13 {
        fill: #5a0a14;
      }

      .st14 {
        fill: #fbbf24;
      }

      .st15 {
        fill: #fcd34d;
      }

      .st16 {
        fill: #fef08a;
      }
    </style>
  </defs>
  <path class="st4" d="M263.73,0h8v7l-8,15-10,24-5,16-4,22v23l4,25,8,20,7,11,8,10,10,9,11,8,3,3v2l22-4,16-1,9,3h27l15-2h15l15,3,10,2,6-7,12-9,12-12,9-14,8-18,4-20,1-9v-19l-3-20-7-24-8-19-10-21V0h9l17,9,14,11,16,16,12,16,8,13,11,21,6,15,5,19,3,16v31l-5,23-3,11-9,21-8,14-1,4,16,8,28,13,16,8,31,13,19,7,24,8,22,5,23,3,17,1,4,5v7l-5,17-7,14-11,15-11,12-10,9-14,9-15,7-9,3-12,2h-23l-8-2,3,17,1,6v32l-3,13-7,10-7,6-2,1h9l2,2-1,13-4,13-8,16-9,12-9,10-14,11-10,7-21,11-21,8-17,5-14,3-19,2-21,1-10,17-8,12-9,10-7,7h-2l-2-14-4,9-7,14-7,9-5,5-7-1-7-8-8-13-5-13-1-1-2,13h-3l-5-5-9-10-12-18-7-12v-2h-24l-24-4-21-6-16-6-16-8-11-6-16-12-12-11-10-12-8-14-6-16-1-5v-12l1-1h9l-8-6-6-8-3-6-2-15v-23l3-17,2-10-12,2h-19l-16-4-16-7-11-7-13-11-11-12-12-18-5-11v-33l23-1,27-5,36-12,24-10,28-13,30-15,13-7h3l-5-7-8-16-8-19-5-22-2-14v-22l5-30,5-15,7-17,12-21,10-14,11-13,8-8,11-9,14-9,9-4h0Z"/>
  <path class="st13" d="M263.73,0h8v7l-8,15-10,24-5,16-4,22v23l4,25,8,20,7,11,8,10,10,9,11,8,4,5v14l-8,11-11,8-17,9-18,7-21,6-5,1h-7l-9-10-6-8-8-16-8-19-5-22-2-14v-22l5-30,5-15,7-17,12-21,10-14,11-13,8-8,11-9,14-9,9-4Z"/>
  <path class="st13" d="M448.73,0h9l17,9,14,11,16,16,12,16,8,13,11,21,6,15,5,19,3,16v31l-5,23-3,11-9,21-8,14-9,12-3,2h-11l-19-5-19-7-16-8-12-8-8-9-3-5v-10l2-5,8-7,9-7,11-11,9-14,8-18,4-20,1-9v-19l-3-20-7-24-8-19-10-21V0h0Z"/>
  <path class="st6" d="M339.73,519h42l18,2,16,4,11,6,9,8,4,7,2,7v19l-4,11-8,16-7,10-9,16-9,12-12,12h-2l-2-14-4,9-7,14-7,9-5,5-7-1-7-8-8-13-5-13-1-1-2,13h-3l-5-5-9-10-12-18-9-15-8-13-4-10-2-8v-18l6-12,8-8,11-6,12-4,19-3Z"/>
  <path class="st13" d="M707.73,351l1,2-8,11-11,12-10,9-14,9-15,7-9,3-12,2h-23l-8-3-3-7-7-22-8-19,5,1v2l9,2,7,3,18,4,6,1h37l12-2,6-2,9-3,16-8,2-2Z"/>
  <path class="st13" d="M22.73,349l4,2,9,6,12,5,15,4,10,1h34l14-3,18-5,7-2-10,30-4,15-7,3-6,1h-19l-16-4-16-7-11-7-13-11-11-12-10-15s0-1,0-1Z"/>
  <path class="st5" d="M281.73,184l4,1,8,6,3,4v14l-8,11-11,8-17,9-18,7-21,6-5,1h-7l-9-10-5-7v-3l20-4,22-9,13-7,14-10,12-11,5-6Z"/>
  <path class="st5" d="M437.73,184h3l9,11,14,11,14,9,19,9,17,5,12,3-2,5-8,11-3,2h-11l-19-5-19-7-16-8-12-8-8-9-3-5v-10l2-5,8-7,3-2h0Z"/>
  <path class="st13" d="M174.73,125l6,1,9,3,18,3h18l21-3,1-3,2,8,6,16,1,3-11,5-16,5-18,2h-20l-19-3h-1v-22l2-14,1-1h0Z"/>
  <path class="st12" d="M328.73,539l4,1,7,10,3,2h36l6-3,7-10,5,1,1,2v7l-4,10-7,6-5,2-11,1-1,1v14l3,9,5,5h14l9-4h5l1,4-4,5-9,5-6,2h-14l-9-6h-4l-10,6h-16l-10-5-7-6v-4h7l9,4h9l6-3,4-5,2-6v-12l-1-4-12-1-9-5-4-5-2-5v-11l2-2Z"/>
  <path class="st5" d="M254.73,153l4,2,2,4-1,4-7,8-9,9-14,9-14,6-10,3-14,3h-11l-2-3-5-22-1-15,19,3h20l18-2,21-7,4-2h0Z"/>
  <path class="st5" d="M464.73,153l5,2,11,4,17,4,8,1h27l12-3h4v10l-3,15-4,15h-12l-21-5-12-5-10-5-13-10-9-9-4-5,1-4,3-5h0Z"/>
  <path class="st5" d="M184.73,89l14,8,9,4,16,4,21,2,2,15v7l-12,3-9,1h-18l-18-3-15-5,1-11,6-19,3-6Z"/>
  <path class="st5" d="M534.73,90l3,1,5,14,4,15v5l-14,5-19,3h-21l-16-3-2-1,1-13,1-9,16-1,18-4,16-7,8-5Z"/>
  <path class="st13" d="M518.73,56l4,5,13,25,1,4-12,7-14,6-18,4h-15l-1-19-1-11,14-4,15-6,12-8,2-3Z"/>
  <path class="st13" d="M200.73,57l4,2,14,9,11,5,16,4-1,7-1,23h-12l-16-3-10-3-16-8-5-4,3-9,12-22,1-1Z"/>
  <path class="st5" d="M218.73,33l4,1,5,5,8,7,14,7-1,9-3,15h-6l-15-5-13-7-9-7-1-2,9-13,8-10Z"/>
  <path class="st5" d="M499.73,33l4,2,13,17,2,3-1,4-10,7-12,6-13,4-7,1-4-17-1-7,14-7,11-9,4-4h0Z"/>
  <path class="st0" d="M354.73,492h23l13,5,11,7,3,4-1,4-4-1-9-6-10-4-9-2h-14l-14,3-14,5-8,5h-4l1-4,7-6,12-6,9-3,8-1Z"/>
  <path class="st13" d="M199.73,239l4,4,6,7,2,1-2,4-11,12-5-1-4-10-3-10,10-6,3-1Z"/>
  <path class="st13" d="M521.73,238l8,5,8,4-1,5-8,10-4,3-4-2-9-10v-2h-7v-1l10-2,6-8,1-2Z"/>
  <path class="st5" d="M448.73,0h9l15,8,1,4-8,8-5,4-3-1-9-19V0Z"/>
  <path class="st5" d="M263.73,0h8v7l-9,17-5-2-11-11,1-3,11-6,5-2Z"/>
  <polygon class="st7" points="28.27 352.03 28.27 358.32 22.62 349.78 28.27 352.03"/>
  <path class="st4" d="M28.27,302.45v49.57l-5.65-2.25c-8.81-13.3-17.57-28.68-22.62-43.81v-5.65l28.27,2.14h0Z"/>
  <path class="st14" d="M245.88,416.21l3.12.87,45.2,25.16.78,3.47-3.12,8.68-7.01,8.68-6.24,4.34-7.79,2.6h-8.57l-8.57-3.47-6.24-5.21-4.68-6.07-3.12-7.81-.78-3.47v-11.28l3.12-9.54,3.9-6.94Z"/>
  <path class="st14" d="M473.46,416.21l2.34.87,3.9,6.94,2.34,6.94v14.75l-3.9,10.41-3.9,5.21-7.01,5.21-5.46,2.6h-15.59l-7.79-4.34-7.01-6.94-4.68-10.41v-5.21l31.18-17.35,11.69-6.94,3.9-1.74Z"/>
  <path class="st1" d="M258.35,424.01l4.68.87,18.71,10.41v6.07l-3.9,7.81-6.24,4.34-1.56.87h-7.01l-4.68-2.6-5.46-6.94-.78-3.47v-7.81l3.12-6.07,3.12-3.47Z"/>
  <path class="st1" d="M457.87,424.88h4.68l3.9,3.47,2.34,5.21v9.54l-3.12,5.21-4.68,4.34-4.68,1.74h-6.24l-5.46-3.47-3.12-4.34-2.34-5.21v-6.07l18.71-10.41Z"/>
  <path class="st11" d="M241.2,412.74l3.12.87,6.24,2.6,10.91,6.07-3.12.87-10.13-6.07h-3.12v-1.74l-3.12-.87-.78-1.74Z"/>
  <path class="st9" d="M481.26,411l2.34.87-8.57,5.21-5.46.87,3.12-2.6,7.01-3.47,1.56-.87Z"/>
  <path class="st10" d="M241.2,412.74l3.12.87,6.24,2.6-2.34.87h-3.12v-1.74l-3.12-.87-.78-1.74Z"/>
  <path class="st15" d="M362.58,36.29l1.81,3.16,4.52,7.1,10.84,8.68,7.22,5.52,7.22,7.1,3.61,7.1.9,3.94v8.68l-6.32,12.62-1.81,4.73v6.31l6.32,6.31,4.52,3.94,3.61,3.94.9,4.73,7.22-.79,8.13-4.73.9-1.58h1.81v-13.41l1.81-2.37h2.71l5.42,10.25,4.52,15.78v14.99l-2.71,11.83-7.22,12.62-9.93,9.47-8.13,5.52-9.03,3.94-5.42,1.58-9.03,1.58-6.32,2.37-7.22.79h-24.38l-18.06-1.58-8.13-1.58-17.16-7.89-9.93-7.89-4.52-6.31-1.81-3.16-.9-4.73v-13.41l3.61-7.89,6.32-8.68,7.22-7.89,2.71-4.73v-7.1l-2.71-7.1-1.81-3.94v-11.83l5.42-7.89,9.93-6.31h2.71l-2.71,8.68v6.31l6.32,6.31,4.52,3.16,2.71-7.89,3.61-4.73,7.22-5.52,13.55-7.89,5.42-7.1v-5.52l-3.61-11.04v-11.04l2.71-4.73.9-.79Z"/>
  <path class="st3" d="M370.71,0h.9l.9,13.41,2.71,7.89,6.32,8.68,20.77,18.14,8.13,10.25,4.52,8.68,1.81,7.1v18.93h1.81l1.81-7.1,5.42-6.31,5.42-3.94,3.61-1.58h2.71l1.81,15.78,6.32,12.62,7.22,14.2,2.71,11.83v16.57l-2.71,11.04-4.52,9.47-6.32,8.68-6.32,5.52-13.55,7.89-9.03,3.16-14.45,3.94-12.64,2.37h-5.42l.9-1.58,8.13-2.37,8.13-1.58,9.03-3.16,9.93-5.52,8.13-7.1,5.42-7.1,4.52-8.68,2.71-11.83v-14.99l-4.52-15.78-4.52-8.68v-1.58l-2.71.79-.9,1.58-.9,13.41h-1.81l-1.81,3.16-7.22,3.94h-7.22l-3.61-7.1-3.61-3.94-7.22-5.52-1.81-2.37v-6.31l3.61-7.89,4.52-9.47v-8.68l-2.71-7.89-5.42-7.1-8.13-7.1-9.93-7.1-5.42-5.52-3.61-7.1-2.71,4.73v11.04l3.61,11.04v5.52l-6.32,7.89-14.45,8.68-7.22,5.52-3.61,7.1-.9,4.73-7.22-4.73-5.42-5.52v-6.31l3.61-8.68-7.22,3.16-5.42,3.94-4.52,7.1v11.83l2.71,5.52,1.81,5.52v7.1l-4.52,7.1-9.93,11.04-2.71,3.94-2.71,7.1v13.41l1.81,5.52,3.61,6.31,7.22,7.1,11.74,6.31,8.13,3.16-2.71.79-16.26-3.94-12.64-5.52-9.93-7.1-7.22-7.89-3.61-6.31-2.71-8.68v-15.78l3.61-12.62,2.71-10.25.9-7.89,4.52,1.58,7.22,7.1,1.81,3.16v3.94l2.71-.79,1.81-3.16v-5.52l-7.22-13.41-1.81-5.52v-14.2l4.52-9.47,6.32-7.89,10.84-11.83,4.52-9.47.9-10.25,4.52,1.58,6.32,5.52,2.71,6.31v8.68l-.9,2.37v6.31l.9.79h5.42l4.52-2.37,3.61-7.1.9-4.73.9-14.99,2.71-9.47,5.42-8.68,8.13-7.89,11.74-7.1,3.61-1.58Z"/>
  <path class="st16" d="M368,100.18h.9l.9,9.47,2.71,9.47,6.32,8.68,6.32,6.31,5.42,9.47.9,12.62,4.52,4.73,5.42.79,4.52-3.94.9-8.68,4.52-3.94,5.42-.79.9,12.62v11.04l-4.52,9.47-8.13,7.89-10.84,7.1-12.64,3.94-.9.79-7.22.79h-24.38l-8.13-1.58-14.45-5.52-8.13-5.52-7.22-7.1-5.42-9.47-.9-3.16v-12.62l3.61-10.25,7.22-11.83.9-3.94h1.81v1.58l3.61,1.58,3.61,5.52v6.31l-1.81,5.52v7.1l6.32,7.1,5.42,7.1,2.71,1.58-1.81-6.31v-6.31l2.71-5.52,6.32-4.73,1.81-2.37v-5.52l-4.52-7.89v-6.31l2.71-3.94,6.32-5.52,10.84-7.1,5.42-8.68Z"/>
  <path class="st14" d="M368,108.07l1.81,1.58,2.71,9.47,6.32,8.68,6.32,6.31,5.42,9.47.9,12.62,4.52,4.73,5.42.79,4.52-3.94.9-8.68,4.52-3.94,5.42-.79.9,12.62v11.04l-4.52,9.47-8.13,7.89-10.84,7.1-12.64,3.94-.9.79-7.22.79h-24.38v-.79h21.67v-1.58l8.13-3.94,5.42-7.1.9-2.37v-7.1l-5.42-7.1-6.32-6.31.9-7.1,4.52-8.68-.9-7.1-5.42-5.52-7.22-5.52-1.81-3.94v-6.31l4.52-9.47Z"/>
  <path class="st14" d="M316.53,127h1.81v1.58l3.61,1.58,3.61,5.52v6.31l-1.81,5.52v7.1l6.32,7.1,2.71,3.94v1.58l-3.61,1.58v8.68l3.61,10.25,2.71,3.94v1.58l2.71.79-1.81.79-12.64-5.52-9.03-7.1-6.32-7.89-3.61-8.68v-12.62l3.61-10.25,7.22-11.83.9-3.94Z"/>
  <path class="st3" d="M333.73,239h3.5l17,6.1,5.5,2.29,2.5-.38,6-2.29,3.5-1.14,13-4.58h4l1.5.76v5.34l-1,4.96-1.5,4.96-1,2.67v2.67l8,4.96,5,3.43,4,2.67,2,1.53v3.05l-3,1.53-9,.76-10.5,1.53-6,.76-1.5,1.53-2,3.43-4,7.63-1.5,1.91-1.5,2.67-2,3.43-1.5,1.53h-3.5l-2.5-2.29-1.5-2.67-4.5-8.39-2-3.05-1.5-3.05-1.5-2.67-8-.76-1-.38-7.5-.76-5-.76-6.5-.76-1.5-1.53v-2.67l6.5-4.96,5.5-3.43,5-3.43,2-1.14-1-4.2-1.5-6.1-1-6.1v-3.43l1.5-1.14v-.04h0Z"/>
  <path class="st2" d="M360.23,253.5l2.5.38,12,5.72,3,1.91-.5,3.05-5,10.68h-22l-5-10.3-1-3.43,12-6.1,4-1.91Z"/>
  <path class="st8" d="M353.23,280.2h16.5l-1.5,3.43-6.5,11.44-1.5-1.53-6.5-11.44-.5-1.91h0Z"/>
  <path class="st2" d="M382.23,245.11h1l-.5,4.2-2,7.63-2-.38-9.5-4.58-1.5-.76.5-1.14,14-4.96h0Z"/>
  <path class="st8" d="M338.23,264.94h1l3,6.1,1.5,3.05v1.14l-8.5-.76-8-1.14-1-.76,5.5-3.81,6.5-3.81h0Z"/>
  <path class="st8" d="M383.23,264.94l2.5.76,5,3.43,5.5,3.43-1.5.76-12.5,1.53-3.5.38,1.5-4.2,3-6.1h0Z"/>
  <path class="st2" d="M339.23,245.11l9,3.05,6.5,2.67-2.5,1.53-9,4.2-1.5.38-2.5-9.15v-2.67h0Z"/>
</svg>